HIERARCHY
ROOT Hips
{
	OFFSET -14.64140 90.27770 -84.91600
	CHANNELS 6 Xposition Yposition Zposition Zrotation Xrotation Yrotation
	JOINT Spine
	{
		OFFSET 0.00000 13.20850 -1.60436
		CHANNELS 3 Zrotation Xrotation Yrotation
		JOINT Spine1
		{
			OFFSET 0.00000 8.61716 0.00000
			CHANNELS 3 Zrotation Xrotation Yrotation
			JOINT Spine2
			{
				OFFSET 0.00000 8.61717 0.00000
				CHANNELS 3 Zrotation Xrotation Yrotation
				JOINT Spine3
				{
					OFFSET 0.00000 8.61717 0.00000
					CHANNELS 3 Zrotation Xrotation Yrotation
					JOINT Neck
					{
						OFFSET 0.00000 11.07920 1.10792
						CHANNELS 3 Zrotation Xrotation Yrotation
						JOINT Neck1
						{
							OFFSET 0.00000 7.08032 0.00000
							CHANNELS 3 Zrotation Xrotation Yrotation
							JOINT Head
							{
								OFFSET 0.00000 7.08031 0.00000
								CHANNELS 3 Zrotation Xrotation Yrotation
								End site
								{
									OFFSET 0.00000 0.00000 0.00000
								}
							}
						}
					}
					JOINT RightShoulder
					{
						OFFSET -0.01000 7.91373 5.19711
						CHANNELS 3 Zrotation Xrotation Yrotation
						JOINT RightArm
						{
							OFFSET -18.41580 0.00000 0.00000
							CHANNELS 3 Zrotation Xrotation Yrotation
							JOINT RightForeArm
							{
								OFFSET -29.11090 0.00000 0.00000
								CHANNELS 3 Zrotation Xrotation Yrotation
								JOINT RightHand
								{
									OFFSET -24.65040 0.00000 0.00000
									CHANNELS 3 Zrotation Xrotation Yrotation
									JOINT RightHandThumb1
									{
										OFFSET -5.35114 -0.85590 3.97906
										CHANNELS 3 Zrotation Xrotation Yrotation
										JOINT RightHandThumb2
										{
											OFFSET -4.52789 0.00000 0.00000
											CHANNELS 3 Zrotation Xrotation Yrotation
											JOINT RightHandThumb3
											{
												OFFSET -2.46976 0.00000 0.00000
												CHANNELS 3 Zrotation Xrotation Yrotation
												End site
												{
													OFFSET 0.00000 0.00000 0.00000
												}
											}
										}
									}
									JOINT RightHandIndex1
									{
										OFFSET -14.26970 0.00000 2.88139
										CHANNELS 3 Zrotation Xrotation Yrotation
										JOINT RightHandIndex2
										{
											OFFSET -5.48836 0.00000 0.00000
											CHANNELS 3 Zrotation Xrotation Yrotation
											JOINT RightHandIndex3
											{
												OFFSET -3.01859 0.00000 0.00000
												CHANNELS 3 Zrotation Xrotation Yrotation
												End site
												{
													OFFSET 0.00000 0.00000 0.00000
												}
											}
										}
									}
									JOINT RightHandMiddle1
									{
										OFFSET -14.26970 0.00000 -0.09147
										CHANNELS 3 Zrotation Xrotation Yrotation
										JOINT RightHandMiddle2
										{
											OFFSET -6.17441 0.00000 0.00000
											CHANNELS 3 Zrotation Xrotation Yrotation
											JOINT RightHandMiddle3
											{
												OFFSET -3.56743 0.00000 0.00000
												CHANNELS 3 Zrotation Xrotation Yrotation
												End site
												{
													OFFSET 0.00000 0.00000 0.00000
												}
											}
										}
									}
									JOINT RightHandRing1
									{
										OFFSET -12.69180 0.00000 -3.06433
										CHANNELS 3 Zrotation Xrotation Yrotation
										JOINT RightHandRing2
										{
											OFFSET -5.62556 0.00000 0.00000
											CHANNELS 3 Zrotation Xrotation Yrotation
											JOINT RightHandRing3
											{
												OFFSET -3.56744 0.00000 0.00000
												CHANNELS 3 Zrotation Xrotation Yrotation
												End site
												{
													OFFSET 0.00000 0.00000 0.00000
												}
											}
										}
									}
									JOINT RightHandPinky1
									{
										OFFSET -11.11390 0.00000 -6.03719
										CHANNELS 3 Zrotation Xrotation Yrotation
										JOINT RightHandPinky2
										{
											OFFSET -4.52789 0.00000 0.00000
											CHANNELS 3 Zrotation Xrotation Yrotation
											JOINT RightHandPinky3
											{
												OFFSET -2.46976 0.00000 0.00000
												CHANNELS 3 Zrotation Xrotation Yrotation
												End site
												{
													OFFSET 0.00000 0.00000 0.00000
												}
											}
										}
									}
								}
							}
						}
					}
					JOINT LeftShoulder
					{
						OFFSET 0.01000 7.91373 5.19711
						CHANNELS 3 Zrotation Xrotation Yrotation
						JOINT LeftArm
						{
							OFFSET 18.41580 0.00000 0.00000
							CHANNELS 3 Zrotation Xrotation Yrotation
							JOINT LeftForeArm
							{
								OFFSET 29.11090 0.00000 0.00000
								CHANNELS 3 Zrotation Xrotation Yrotation
								JOINT LeftHand
								{
									OFFSET 24.65040 0.00000 0.00000
									CHANNELS 3 Zrotation Xrotation Yrotation
									JOINT LeftHandThumb1
									{
										OFFSET 5.35114 -0.85590 3.97906
										CHANNELS 3 Zrotation Xrotation Yrotation
										JOINT LeftHandThumb2
										{
											OFFSET 4.52789 0.00000 0.00000
											CHANNELS 3 Zrotation Xrotation Yrotation
											JOINT LeftHandThumb3
											{
												OFFSET 2.46977 0.00000 0.00000
												CHANNELS 3 Zrotation Xrotation Yrotation
												End site
												{
													OFFSET 0.00000 0.00000 0.00000
												}
											}
										}
									}
									JOINT LeftHandIndex1
									{
										OFFSET 14.26970 0.00000 2.88139
										CHANNELS 3 Zrotation Xrotation Yrotation
										JOINT LeftHandIndex2
										{
											OFFSET 5.48836 0.00000 0.00000
											CHANNELS 3 Zrotation Xrotation Yrotation
											JOINT LeftHandIndex3
											{
												OFFSET 3.01859 0.00000 0.00000
												CHANNELS 3 Zrotation Xrotation Yrotation
												End site
												{
													OFFSET 0.00000 0.00000 0.00000
												}
											}
										}
									}
									JOINT LeftHandMiddle1
									{
										OFFSET 14.26970 0.00000 -0.09147
										CHANNELS 3 Zrotation Xrotation Yrotation
										JOINT LeftHandMiddle2
										{
											OFFSET 6.17440 0.00000 0.00000
											CHANNELS 3 Zrotation Xrotation Yrotation
											JOINT LeftHandMiddle3
											{
												OFFSET 3.56744 0.00000 0.00000
												CHANNELS 3 Zrotation Xrotation Yrotation
												End site
												{
													OFFSET 0.00000 0.00000 0.00000
												}
											}
										}
									}
									JOINT LeftHandRing1
									{
										OFFSET 12.69180 0.00000 -3.06433
										CHANNELS 3 Zrotation Xrotation Yrotation
										JOINT LeftHandRing2
										{
											OFFSET 5.62556 0.00000 0.00000
											CHANNELS 3 Zrotation Xrotation Yrotation
											JOINT LeftHandRing3
											{
												OFFSET 3.56744 0.00000 0.00000
												CHANNELS 3 Zrotation Xrotation Yrotation
												End site
												{
													OFFSET 0.00000 0.00000 0.00000
												}
											}
										}
									}
									JOINT LeftHandPinky1
									{
										OFFSET 11.11390 0.00000 -6.03719
										CHANNELS 3 Zrotation Xrotation Yrotation
										JOINT LeftHandPinky2
										{
											OFFSET 4.52789 0.00000 0.00000
											CHANNELS 3 Zrotation Xrotation Yrotation
											JOINT LeftHandPinky3
											{
												OFFSET 2.46976 0.00000 0.00000
												CHANNELS 3 Zrotation Xrotation Yrotation
												End site
												{
													OFFSET 0.00000 0.00000 0.00000
												}
											}
										}
									}
								}
							}
						}
					}
					JOINT pCube4
					{
						OFFSET 0.00000 10.91090 1.10792
						CHANNELS 3 Zrotation Xrotation Yrotation
						End site
						{
							OFFSET 0.00000 0.00000 0.00000
						}
					}
				}
			}
		}
	}
	JOINT RightUpLeg
	{
		OFFSET -9.98441 0.00000 0.00000
		CHANNELS 3 Zrotation Xrotation Yrotation
		JOINT RightLeg
		{
			OFFSET 0.00000 -42.11790 0.00000
			CHANNELS 3 Zrotation Xrotation Yrotation
			JOINT RightFoot
			{
				OFFSET 0.00000 -45.00020 -0.00001
				CHANNELS 3 Zrotation Xrotation Yrotation
				JOINT RightForeFoot
				{
					OFFSET 0.00000 -3.74820 0.00000
					CHANNELS 3 Zrotation Xrotation Yrotation
					JOINT RightToeBase
					{
						OFFSET 0.00000 0.06325 14.43120
						CHANNELS 3 Zrotation Xrotation Yrotation
						End site
						{
							OFFSET 0.00000 0.00000 0.00000
						}
					}
				}
			}
		}
	}
	JOINT LeftUpLeg
	{
		OFFSET 9.98441 0.00000 0.00000
		CHANNELS 3 Zrotation Xrotation Yrotation
		JOINT LeftLeg
		{
			OFFSET 0.00000 -42.11800 0.00000
			CHANNELS 3 Zrotation Xrotation Yrotation
			JOINT LeftFoot
			{
				OFFSET 0.00000 -45.00070 0.00000
				CHANNELS 3 Zrotation Xrotation Yrotation
				JOINT LeftForeFoot
				{
					OFFSET 0.00000 -3.74824 0.00000
					CHANNELS 3 Zrotation Xrotation Yrotation
					JOINT LeftToeBase
					{
						OFFSET 0.00000 0.06325 14.43110
						CHANNELS 3 Zrotation Xrotation Yrotation
						End site
						{
							OFFSET 0.00000 0.00000 0.00000
						}
					}
				}
			}
		}
	}
}
MOTION
Frames: 4
Frame Time: 0.050000
0.0 0.0 0.0 -0.0 0.0 -0.0 1.7491140543674093 2.723078578649917 -2.0494183949787197 -1.026234016083469 3.959471796096254 0.48380030486031855 -0.8321889775519742 -0.8664124624204969 -0.14894102355821295 0.05268681404784195 0.05865818262291872 -0.3664181486140426 -0.1812809292787084 12.648439932096482 -0.46061816175298403 0.151095692810654 -0.5775908398748686 -1.2109173603631587 0.4058330398229786 -16.470222045179074 -0.004977946844185938 -7.3495107427371895 4.640641952520559 -15.571445779621342 70.74116073365714 15.837200000830533 -2.873018259042938 -2.741113892327072 -1.7907293107801756 68.33989982518824 11.113319779840664 -0.5808030131719036 -1.9160159293172523 -2.36978 -0.201104 4.8479 1.23799e-06 -2.59538e-07 -3.99014e-06 1.1532e-06 8.61999e-07 -6.12582e-07 4.15954 -4.57969e-06 2.50103e-06 5.00605e-07 1.17626e-06 -1.09937e-06 5.00605e-07 1.17626e-06 -1.09937e-06 12.1951 -1.13344e-06 5.25921e-06 1.11309e-05 -1.18451e-06 -1.72079e-06 -4.5942e-07 3.14939e-07 3.09513e-07 18.091 -3.393e-06 6.28454e-07 7.95139e-16 1.27222e-14 1.19271e-15 -1.59028e-15 6.36111e-15 -0.0 37.0196 2.14169e-06 2.11229e-06 1.43697e-05 3.79404e-06 4.26277e-06 4.00592e-07 -1.38718e-06 -8.17273e-07 7.714239749782862 4.038528330507361 13.519992050931801 -65.5365628580747 26.84132435920501 7.746639487409133 0.5625840744176132 0.2201868489158815 -70.31156037205375 -10.494986539148597 -0.48404686472752395 1.0058897183727535 2.59029 -0.543726 -11.8472 -3.83086e-06 2.9981e-06 2.11798e-05 -6.2661e-07 -1.39035e-06 1.86693e-06 -2.91242 1.44339e-06 -3.63115e-06 -5.59715e-07 1.09034e-06 1.13377e-06 -5.59715e-07 1.09034e-06 1.13377e-06 -12.9985 4.90405e-06 -3.76457e-06 -1.33771e-06 -1.464e-06 3.19814e-06 -5.26079e-07 9.86454e-07 1.22523e-06 -18.6344 -1.21198e-06 -2.47337e-06 -1.25358e-05 -1.68607e-06 5.04235e-06 1.87336e-06 6.94431e-07 -4.39454e-06 -34.5048 5.85289e-08 -3.49365e-06 -7.95138e-15 1.27222e-14 4.77083e-15 4.77083e-15 0.0 1.59028e-15 -4.96962e-16 0.0 -5.96354e-16 -2.14252 4.04337 -7.87884 0.000736976 11.8398 0.022817 -8.95265 -13.7596 -17.195 0.0 0.0 -0.0 -3.49049e-07 11.7695 -1.17258e-06 -5.38847 -1.06001 14.489 -6.42443e-05 20.6219 -0.00813738 2.554 -6.64826 -6.50648 3.97569e-16 0.0 4.77083e-15 2.26877e-07 -4.83151 6.05402e-06
0.0 0.0 0.0 -0.0 0.0 -0.0 3.452144137869231 3.322237042877192 -2.673285357658709 -0.9489553425012434 3.8518139008234145 0.44958908612760995 -0.5918597846674701 -0.6381980978148094 -0.3039828625243006 -0.147062426827362 -0.19489844263588033 -0.23913775212399097 -0.847593529186694 13.000967712325286 0.23126572592389447 0.25300147941373635 -0.856357024875338 1.435712739974529 0.37851779081307274 -17.147944642124045 0.15909414318224768 -8.542762145864565 5.4800859074848765 -16.23906603556751 77.39710762172204 19.862690318225795 1.6686927547557049 -7.883907742455271 -24.916629742651082 65.31048297978708 11.815419012958571 -0.26844537446617056 -0.43905724366596827 -2.36978 -0.201104 4.8479 1.23799e-06 -2.59538e-07 -3.99014e-06 1.1532e-06 8.61999e-07 -6.12582e-07 4.15954 -4.57969e-06 2.50103e-06 5.00605e-07 1.17626e-06 -1.09937e-06 5.00605e-07 1.17626e-06 -1.09937e-06 12.1951 -1.13344e-06 5.25921e-06 1.11309e-05 -1.18451e-06 -1.72079e-06 -4.5942e-07 3.14939e-07 3.09513e-07 18.091 -3.393e-06 6.28454e-07 7.95139e-16 1.27222e-14 1.19271e-15 -1.59028e-15 6.36111e-15 -0.0 37.0196 2.14169e-06 2.11229e-06 1.43697e-05 3.79404e-06 4.26277e-06 4.00592e-07 -1.38718e-06 -8.17273e-07 9.828202785301816 5.064558610359827 13.631340808588128 -62.751656113510215 36.80485435854369 -2.925297316038128 3.6877558083069464 -18.87405376248515 -70.81942414840874 -13.488968710675378 -0.7685326831126778 1.9372725802790292 2.59029 -0.543726 -11.8472 -3.83086e-06 2.9981e-06 2.11798e-05 -6.2661e-07 -1.39035e-06 1.86693e-06 -2.91242 1.44339e-06 -3.63115e-06 -5.59715e-07 1.09034e-06 1.13377e-06 -5.59715e-07 1.09034e-06 1.13377e-06 -12.9985 4.90405e-06 -3.76457e-06 -1.33771e-06 -1.464e-06 3.19814e-06 -5.26079e-07 9.86454e-07 1.22523e-06 -18.6344 -1.21198e-06 -2.47337e-06 -1.25358e-05 -1.68607e-06 5.04235e-06 1.87336e-06 6.94431e-07 -4.39454e-06 -34.5048 5.85289e-08 -3.49365e-06 -7.95138e-15 1.27222e-14 4.77083e-15 4.77083e-15 0.0 1.59028e-15 -4.96962e-16 0.0 -5.96354e-16 -2.14252 4.04337 -7.87884 0.000736976 11.8398 0.022817 -8.95265 -13.7596 -17.195 0.0 0.0 -0.0 -3.49049e-07 11.7695 -1.17258e-06 -5.38847 -1.06001 14.489 -6.42443e-05 20.6219 -0.00813738 2.554 -6.64826 -6.50648 3.97569e-16 0.0 4.77083e-15 2.26877e-07 -4.83151 6.05402e-06
0.0 0.0 0.0 -0.0 0.0 -0.0 4.0007615454013115 3.567174308611819 -2.9226347379822357 -0.933672678527312 3.7905170517318645 0.43797307411599495 -0.49201670588568186 -0.582706469972256 -0.44444496734146977 -0.2896758425378762 -0.3651106171247798 -0.19260479456622176 -1.2821748460117834 13.692591575931605 0.575520155392092 0.2648537119461238 -0.8299306545873836 2.6880472694989836 0.3220750467713009 -17.28709974061916 0.23257876496266344 -9.877571367254168 6.186822782383937 -16.08364492140385 81.52247677945172 27.429556620298484 8.233786386177876 -9.17493225759814 -31.504132348082038 67.64686205431731 11.215532131558403 -0.07832247624106757 0.30196545637462574 -2.36978 -0.201104 4.8479 1.23799e-06 -2.59538e-07 -3.99014e-06 1.1532e-06 8.61999e-07 -6.12582e-07 4.15954 -4.57969e-06 2.50103e-06 5.00605e-07 1.17626e-06 -1.09937e-06 5.00605e-07 1.17626e-06 -1.09937e-06 12.1951 -1.13344e-06 5.25921e-06 1.11309e-05 -1.18451e-06 -1.72079e-06 -4.5942e-07 3.14939e-07 3.09513e-07 18.091 -3.393e-06 6.28454e-07 7.95139e-16 1.27222e-14 1.19271e-15 -1.59028e-15 6.36111e-15 -0.0 37.0196 2.14169e-06 2.11229e-06 1.43697e-05 3.79404e-06 4.26277e-06 4.00592e-07 -1.38718e-06 -8.17273e-07 11.815614307412133 5.923625507945554 13.374065592200118 -54.753808991883226 46.02416522242162 -18.41841292386242 5.3282962423173705 -29.314044909718657 -75.37812606378606 -14.231594838421032 -0.8416537934502846 2.0459298485516957 2.59029 -0.543726 -11.8472 -3.83086e-06 2.9981e-06 2.11798e-05 -6.2661e-07 -1.39035e-06 1.86693e-06 -2.91242 1.44339e-06 -3.63115e-06 -5.59715e-07 1.09034e-06 1.13377e-06 -5.59715e-07 1.09034e-06 1.13377e-06 -12.9985 4.90405e-06 -3.76457e-06 -1.33771e-06 -1.464e-06 3.19814e-06 -5.26079e-07 9.86454e-07 1.22523e-06 -18.6344 -1.21198e-06 -2.47337e-06 -1.25358e-05 -1.68607e-06 5.04235e-06 1.87336e-06 6.94431e-07 -4.39454e-06 -34.5048 5.85289e-08 -3.49365e-06 -7.95138e-15 1.27222e-14 4.77083e-15 4.77083e-15 0.0 1.59028e-15 -4.96962e-16 0.0 -5.96354e-16 -2.14252 4.04337 -7.87884 0.000736976 11.8398 0.022817 -8.95265 -13.7596 -17.195 0.0 0.0 -0.0 -3.49049e-07 11.7695 -1.17258e-06 -5.38847 -1.06001 14.489 -6.42443e-05 20.6219 -0.00813738 2.554 -6.64826 -6.50648 3.97569e-16 0.0 4.77083e-15 2.26877e-07 -4.83151 6.05402e-06
0.0 0.0 0.0 -0.0 0.0 -0.0 3.4526038429634283 3.395095777771645 -2.78198704296807 -0.949212575026714 3.8880883627111587 0.4294445527271546 -0.5382767378407486 -0.7457388797464729 -0.5546835527079491 -0.2934546931541802 -0.42040247174772916 -0.2401889302536333 -1.320733362512965 14.46609529833268 0.4763013649393676 0.24433902321388412 -0.6290663231071646 2.404658785722313 0.31813767866635134 -17.075876270073255 0.21396556965727093 -10.771340343843017 6.4429328978086335 -15.570701518978673 79.82949552408034 31.76761091515074 13.782487080767982 -7.083982775784017 -27.080673635447532 68.14204176647144 9.754515208745472 0.24224243375722526 1.220707150608237 -2.36978 -0.201104 4.8479 1.23799e-06 -2.59538e-07 -3.99014e-06 1.1532e-06 8.61999e-07 -6.12582e-07 4.15954 -4.57969e-06 2.50103e-06 5.00605e-07 1.17626e-06 -1.09937e-06 5.00605e-07 1.17626e-06 -1.09937e-06 12.1951 -1.13344e-06 5.25921e-06 1.11309e-05 -1.18451e-06 -1.72079e-06 -4.5942e-07 3.14939e-07 3.09513e-07 18.091 -3.393e-06 6.28454e-07 7.95139e-16 1.27222e-14 1.19271e-15 -1.59028e-15 6.36111e-15 -0.0 37.0196 2.14169e-06 2.11229e-06 1.43697e-05 3.79404e-06 4.26277e-06 4.00592e-07 -1.38718e-06 -8.17273e-07 12.967152924842807 6.3330399436330405 13.06564006647317 -46.97255541290601 48.77784465588405 -29.561693996508296 4.023971357437406 -28.908174576112934 -80.30850662825456 -12.100326881868842 -0.54367863284078 0.7928468235547859 2.59029 -0.543726 -11.8472 -3.83086e-06 2.9981e-06 2.11798e-05 -6.2661e-07 -1.39035e-06 1.86693e-06 -2.91242 1.44339e-06 -3.63115e-06 -5.59715e-07 1.09034e-06 1.13377e-06 -5.59715e-07 1.09034e-06 1.13377e-06 -12.9985 4.90405e-06 -3.76457e-06 -1.33771e-06 -1.464e-06 3.19814e-06 -5.26079e-07 9.86454e-07 1.22523e-06 -18.6344 -1.21198e-06 -2.47337e-06 -1.25358e-05 -1.68607e-06 5.04235e-06 1.87336e-06 6.94431e-07 -4.39454e-06 -34.5048 5.85289e-08 -3.49365e-06 -7.95138e-15 1.27222e-14 4.77083e-15 4.77083e-15 0.0 1.59028e-15 -4.96962e-16 0.0 -5.96354e-16 -2.14252 4.04337 -7.87884 0.000736976 11.8398 0.022817 -8.95265 -13.7596 -17.195 0.0 0.0 -0.0 -3.49049e-07 11.7695 -1.17258e-06 -5.38847 -1.06001 14.489 -6.42443e-05 20.6219 -0.00813738 2.554 -6.64826 -6.50648 3.97569e-16 0.0 4.77083e-15 2.26877e-07 -4.83151 6.05402e-06
